<svg width="1279" height="350" viewBox="0 0 1279 350" fill="none" xmlns="http://www.w3.org/2000/svg">
<path d="M451.2 106.2C475.267 106.2 487.3 117.667 487.3 140.6C487.3 163.533 475.267 175 451.2 175H421.4V106.2H451.2ZM443.5 158.5H450.8C460.067 158.5 464.7 153.533 464.7 143.6V137.6C464.7 127.667 460.067 122.7 450.8 122.7H443.5V158.5ZM556.432 105C568.299 105 577.465 108.033 583.932 114.1C590.399 120.167 593.632 129 593.632 140.6C593.632 152.2 590.399 161.033 583.932 167.1C577.465 173.167 568.299 176.2 556.432 176.2C544.565 176.2 535.399 173.2 528.932 167.2C522.532 161.133 519.332 152.267 519.332 140.6C519.332 128.933 522.532 120.1 528.932 114.1C535.399 108.033 544.565 105 556.432 105ZM556.432 121.5C551.699 121.5 548.099 122.933 545.632 125.8C543.165 128.667 541.932 132.533 541.932 137.4V143.8C541.932 148.667 543.165 152.533 545.632 155.4C548.099 158.267 551.699 159.7 556.432 159.7C561.165 159.7 564.765 158.267 567.232 155.4C569.765 152.533 571.032 148.667 571.032 143.8V137.4C571.032 132.533 569.765 128.667 567.232 125.8C564.765 122.933 561.165 121.5 556.432 121.5ZM687.633 175V150.2C687.633 147.133 687.733 144 687.933 140.8C688.199 137.533 688.466 134.8 688.733 132.6C688.999 130.4 689.166 129 689.233 128.4H688.833L676.133 175H658.833L646.033 128.5H645.633C645.699 129.1 645.866 130.5 646.133 132.7C646.466 134.833 646.766 137.533 647.033 140.8C647.299 144 647.433 147.133 647.433 150.2V175H627.133V106.2H658.333L668.733 145.9H669.133L679.433 106.2H709.533V175H687.633ZM780.166 105C792.033 105 801.2 108.033 807.666 114.1C814.133 120.167 817.366 129 817.366 140.6C817.366 152.2 814.133 161.033 807.666 167.1C801.2 173.167 792.033 176.2 780.166 176.2C768.3 176.2 759.133 173.2 752.666 167.2C746.266 161.133 743.066 152.267 743.066 140.6C743.066 128.933 746.266 120.1 752.666 114.1C759.133 108.033 768.3 105 780.166 105ZM780.166 121.5C775.433 121.5 771.833 122.933 769.366 125.8C766.9 128.667 765.666 132.533 765.666 137.4V143.8C765.666 148.667 766.9 152.533 769.366 155.4C771.833 158.267 775.433 159.7 780.166 159.7C784.9 159.7 788.5 158.267 790.966 155.4C793.5 152.533 794.766 148.667 794.766 143.8V137.4C794.766 132.533 793.5 128.667 790.966 125.8C788.5 122.933 784.9 121.5 780.166 121.5ZM889.23 123.8V175H867.13V123.8H844.53V106.2H911.73V123.8H889.23ZM945.798 175V106.2H967.898V175H945.798ZM1053.27 106.2H1080.67L1055.97 134.5L1081.17 175H1055.07L1040.77 149.8L1028.77 159.6V175H1006.67V106.2H1028.77V135.6L1053.27 106.2ZM1112.97 106.2H1172.47V122.7H1135.07V132.2H1167.07V148H1135.07V158.5H1173.17V175H1112.97V106.2ZM1254.23 175L1251.33 165.3H1227.23L1224.33 175H1201.73L1226.83 106.2H1252.53L1277.63 175H1254.23ZM1231.83 149.9H1246.73L1239.53 125.4H1239.13L1231.83 149.9Z" fill="#375B8C"/>
<path d="M444.35 253V236.17H437.75V232.42H455.48V236.17H448.85V253H444.35ZM474.699 253V232.42H491.139V236.08H479.199V240.67H489.759V244.3H479.199V249.31H491.319V253H474.699ZM520.587 253.36C518.447 253.36 516.617 252.99 515.097 252.25C513.577 251.49 512.417 250.32 511.617 248.74C510.837 247.16 510.447 245.15 510.447 242.71C510.447 239.11 511.327 236.44 513.087 234.7C514.867 232.94 517.367 232.06 520.587 232.06C522.347 232.06 523.927 232.36 525.327 232.96C526.727 233.56 527.827 234.46 528.627 235.66C529.447 236.86 529.857 238.37 529.857 240.19H525.357C525.357 239.23 525.157 238.42 524.757 237.76C524.377 237.1 523.827 236.6 523.107 236.26C522.407 235.9 521.587 235.72 520.647 235.72C519.367 235.72 518.307 235.97 517.467 236.47C516.647 236.97 516.037 237.71 515.637 238.69C515.257 239.65 515.067 240.83 515.067 242.23V243.16C515.067 244.6 515.267 245.81 515.667 246.79C516.067 247.75 516.667 248.48 517.467 248.98C518.287 249.46 519.337 249.7 520.617 249.7C521.617 249.7 522.487 249.53 523.227 249.19C523.967 248.85 524.537 248.35 524.937 247.69C525.337 247.03 525.537 246.22 525.537 245.26H529.857C529.857 247.08 529.457 248.59 528.657 249.79C527.877 250.99 526.787 251.89 525.387 252.49C523.987 253.07 522.387 253.36 520.587 253.36ZM549.579 253V232.42H553.689L561.969 243.52C562.089 243.66 562.239 243.86 562.419 244.12C562.599 244.36 562.769 244.6 562.929 244.84C563.089 245.08 563.199 245.27 563.259 245.41H563.409C563.409 245.07 563.409 244.74 563.409 244.42C563.409 244.08 563.409 243.78 563.409 243.52V232.42H567.639V253H563.529L555.069 241.63C554.869 241.35 554.659 241.04 554.439 240.7C554.219 240.36 554.059 240.1 553.959 239.92H553.809C553.809 240.22 553.809 240.52 553.809 240.82C553.809 241.1 553.809 241.37 553.809 241.63V253H549.579ZM597.996 253.36C595.816 253.36 593.936 252.97 592.356 252.19C590.776 251.41 589.566 250.23 588.726 248.65C587.886 247.07 587.466 245.09 587.466 242.71C587.466 240.29 587.886 238.3 588.726 236.74C589.566 235.16 590.776 233.99 592.356 233.23C593.936 232.45 595.816 232.06 597.996 232.06C600.216 232.06 602.106 232.45 603.666 233.23C605.246 233.99 606.456 235.16 607.296 236.74C608.136 238.3 608.556 240.29 608.556 242.71C608.556 245.09 608.136 247.07 607.296 248.65C606.456 250.23 605.246 251.41 603.666 252.19C602.106 252.97 600.216 253.36 597.996 253.36ZM597.996 249.7C598.976 249.7 599.836 249.56 600.576 249.28C601.316 249 601.936 248.58 602.436 248.02C602.936 247.46 603.316 246.78 603.576 245.98C603.836 245.16 603.966 244.23 603.966 243.19V242.26C603.966 241.2 603.836 240.26 603.576 239.44C603.316 238.62 602.936 237.94 602.436 237.4C601.936 236.84 601.316 236.42 600.576 236.14C599.836 235.86 598.976 235.72 597.996 235.72C597.036 235.72 596.186 235.86 595.446 236.14C594.706 236.42 594.086 236.84 593.586 237.4C593.086 237.94 592.706 238.62 592.446 239.44C592.206 240.26 592.086 241.2 592.086 242.26V243.19C592.086 244.23 592.206 245.16 592.446 245.98C592.706 246.78 593.086 247.46 593.586 248.02C594.086 248.58 594.706 249 595.446 249.28C596.186 249.56 597.036 249.7 597.996 249.7ZM628.385 253V232.42H632.855V249.19H643.235V253H628.385ZM671.002 253.36C668.822 253.36 666.942 252.97 665.362 252.19C663.782 251.41 662.572 250.23 661.732 248.65C660.892 247.07 660.472 245.09 660.472 242.71C660.472 240.29 660.892 238.3 661.732 236.74C662.572 235.16 663.782 233.99 665.362 233.23C666.942 232.45 668.822 232.06 671.002 232.06C673.222 232.06 675.112 232.45 676.672 233.23C678.252 233.99 679.462 235.16 680.302 236.74C681.142 238.3 681.562 240.29 681.562 242.71C681.562 245.09 681.142 247.07 680.302 248.65C679.462 250.23 678.252 251.41 676.672 252.19C675.112 252.97 673.222 253.36 671.002 253.36ZM671.002 249.7C671.982 249.7 672.842 249.56 673.582 249.28C674.322 249 674.942 248.58 675.442 248.02C675.942 247.46 676.322 246.78 676.582 245.98C676.842 245.16 676.972 244.23 676.972 243.19V242.26C676.972 241.2 676.842 240.26 676.582 239.44C676.322 238.62 675.942 237.94 675.442 237.4C674.942 236.84 674.322 236.42 673.582 236.14C672.842 235.86 671.982 235.72 671.002 235.72C670.042 235.72 669.192 235.86 668.452 236.14C667.712 236.42 667.092 236.84 666.592 237.4C666.092 237.94 665.712 238.62 665.452 239.44C665.212 240.26 665.092 241.2 665.092 242.26V243.19C665.092 244.23 665.212 245.16 665.452 245.98C665.712 246.78 666.092 247.46 666.592 248.02C667.092 248.58 667.712 249 668.452 249.28C669.192 249.56 670.042 249.7 671.002 249.7ZM710.751 253.36C707.511 253.36 705.011 252.5 703.251 250.78C701.511 249.04 700.641 246.35 700.641 242.71C700.641 240.29 701.061 238.3 701.901 236.74C702.741 235.16 703.961 233.99 705.561 233.23C707.161 232.45 709.081 232.06 711.321 232.06C712.661 232.06 713.921 232.21 715.101 232.51C716.281 232.81 717.321 233.27 718.221 233.89C719.141 234.51 719.851 235.29 720.351 236.23C720.871 237.15 721.131 238.25 721.131 239.53H716.601C716.601 238.91 716.461 238.36 716.181 237.88C715.921 237.4 715.551 237 715.071 236.68C714.591 236.36 714.041 236.12 713.421 235.96C712.801 235.8 712.151 235.72 711.471 235.72C710.431 235.72 709.521 235.86 708.741 236.14C707.961 236.4 707.311 236.81 706.791 237.37C706.291 237.91 705.911 238.59 705.651 239.41C705.391 240.23 705.261 241.18 705.261 242.26V243.16C705.261 244.66 705.481 245.89 705.921 246.85C706.361 247.81 707.021 248.53 707.901 249.01C708.781 249.47 709.871 249.7 711.171 249.7C712.251 249.7 713.201 249.54 714.021 249.22C714.861 248.88 715.511 248.4 715.971 247.78C716.451 247.16 716.691 246.4 716.691 245.5V245.29H710.541V241.87H721.131V253H718.191L717.801 250.78C717.201 251.36 716.551 251.84 715.851 252.22C715.171 252.6 714.411 252.88 713.571 253.06C712.731 253.26 711.791 253.36 710.751 253.36ZM741.644 253V232.42H746.114V253H741.644ZM741.914 230.83L744.404 226.84H748.874L748.904 226.96L745.334 230.83H741.914ZM764.767 253L772.687 232.42H778.207L786.127 253H781.297L779.827 248.95H770.857L769.387 253H764.767ZM772.147 245.35H778.537L776.707 240.28C776.627 240.06 776.527 239.8 776.407 239.5C776.307 239.18 776.197 238.83 776.077 238.45C775.957 238.07 775.837 237.7 775.717 237.34C775.617 236.96 775.517 236.62 775.417 236.32H775.237C775.137 236.7 775.007 237.15 774.847 237.67C774.687 238.17 774.527 238.66 774.367 239.14C774.207 239.6 774.077 239.98 773.977 240.28L772.147 245.35ZM826.865 253V232.42H837.575C839.055 232.42 840.285 232.7 841.265 233.26C842.265 233.8 843.015 234.57 843.515 235.57C844.035 236.55 844.295 237.72 844.295 239.08C844.295 240.44 844.025 241.63 843.485 242.65C842.965 243.65 842.195 244.43 841.175 244.99C840.155 245.55 838.905 245.83 837.425 245.83H831.335V253H826.865ZM831.335 242.17H836.825C837.765 242.17 838.485 241.9 838.985 241.36C839.505 240.82 839.765 240.07 839.765 239.11C839.765 238.45 839.655 237.9 839.435 237.46C839.215 237.02 838.885 236.68 838.445 236.44C838.025 236.2 837.485 236.08 836.825 236.08H831.335V242.17ZM859.891 253L867.811 232.42H873.331L881.251 253H876.421L874.951 248.95H865.981L864.511 253H859.891ZM867.271 245.35H873.661L871.831 240.28C871.751 240.06 871.651 239.8 871.531 239.5C871.431 239.18 871.321 238.83 871.201 238.45C871.081 238.07 870.961 237.7 870.841 237.34C870.741 236.96 870.641 236.62 870.541 236.32H870.361C870.261 236.7 870.131 237.15 869.971 237.67C869.811 238.17 869.651 238.66 869.491 239.14C869.331 239.6 869.201 239.98 869.101 240.28L867.271 245.35ZM899.9 253V232.42H911.18C912.7 232.42 913.96 232.69 914.96 233.23C915.98 233.77 916.74 234.53 917.24 235.51C917.74 236.47 917.99 237.58 917.99 238.84C917.99 240.18 917.69 241.37 917.09 242.41C916.49 243.43 915.62 244.21 914.48 244.75L918.68 253H913.73L910.1 245.5H904.37V253H899.9ZM904.37 241.96H910.58C911.48 241.96 912.18 241.69 912.68 241.15C913.18 240.59 913.43 239.84 913.43 238.9C913.43 238.3 913.32 237.79 913.1 237.37C912.88 236.93 912.56 236.6 912.14 236.38C911.72 236.16 911.2 236.05 910.58 236.05H904.37V241.96ZM935.914 253L943.834 232.42H949.354L957.274 253H952.444L950.974 248.95H942.004L940.534 253H935.914ZM943.294 245.35H949.684L947.854 240.28C947.774 240.06 947.674 239.8 947.554 239.5C947.454 239.18 947.344 238.83 947.224 238.45C947.104 238.07 946.984 237.7 946.864 237.34C946.764 236.96 946.664 236.62 946.564 236.32H946.384C946.284 236.7 946.154 237.15 945.994 237.67C945.834 238.17 945.674 238.66 945.514 239.14C945.354 239.6 945.224 239.98 945.124 240.28L943.294 245.35ZM998.011 253V232.42H1014.45V236.08H1002.51V240.67H1013.07V244.3H1002.51V249.31H1014.63V253H998.011ZM1034.69 253V232.42H1039.16V249.19H1049.54V253H1034.69ZM1090.7 253V232.42H1095.17V240.58H1104.29V232.42H1108.76V253H1104.29V244.36H1095.17V253H1090.7ZM1139.12 253.36C1136.94 253.36 1135.06 252.97 1133.48 252.19C1131.9 251.41 1130.69 250.23 1129.85 248.65C1129.01 247.07 1128.59 245.09 1128.59 242.71C1128.59 240.29 1129.01 238.3 1129.85 236.74C1130.69 235.16 1131.9 233.99 1133.48 233.23C1135.06 232.45 1136.94 232.06 1139.12 232.06C1141.34 232.06 1143.23 232.45 1144.79 233.23C1146.37 233.99 1147.58 235.16 1148.42 236.74C1149.26 238.3 1149.68 240.29 1149.68 242.71C1149.68 245.09 1149.26 247.07 1148.42 248.65C1147.58 250.23 1146.37 251.41 1144.79 252.19C1143.23 252.97 1141.34 253.36 1139.12 253.36ZM1139.12 249.7C1140.1 249.7 1140.96 249.56 1141.7 249.28C1142.44 249 1143.06 248.58 1143.56 248.02C1144.06 247.46 1144.44 246.78 1144.7 245.98C1144.96 245.16 1145.09 244.23 1145.09 243.19V242.26C1145.09 241.2 1144.96 240.26 1144.7 239.44C1144.44 238.62 1144.06 237.94 1143.56 237.4C1143.06 236.84 1142.44 236.42 1141.7 236.14C1140.96 235.86 1140.1 235.72 1139.12 235.72C1138.16 235.72 1137.31 235.86 1136.57 236.14C1135.83 236.42 1135.21 236.84 1134.71 237.4C1134.21 237.94 1133.83 238.62 1133.57 239.44C1133.33 240.26 1133.21 241.2 1133.21 242.26V243.19C1133.21 244.23 1133.33 245.16 1133.57 245.98C1133.83 246.78 1134.21 247.46 1134.71 248.02C1135.21 248.58 1135.83 249 1136.57 249.28C1137.31 249.56 1138.16 249.7 1139.12 249.7ZM1178.87 253.36C1175.63 253.36 1173.13 252.5 1171.37 250.78C1169.63 249.04 1168.76 246.35 1168.76 242.71C1168.76 240.29 1169.18 238.3 1170.02 236.74C1170.86 235.16 1172.08 233.99 1173.68 233.23C1175.28 232.45 1177.2 232.06 1179.44 232.06C1180.78 232.06 1182.04 232.21 1183.22 232.51C1184.4 232.81 1185.44 233.27 1186.34 233.89C1187.26 234.51 1187.97 235.29 1188.47 236.23C1188.99 237.15 1189.25 238.25 1189.25 239.53H1184.72C1184.72 238.91 1184.58 238.36 1184.3 237.88C1184.04 237.4 1183.67 237 1183.19 236.68C1182.71 236.36 1182.16 236.12 1181.54 235.96C1180.92 235.8 1180.27 235.72 1179.59 235.72C1178.55 235.72 1177.64 235.86 1176.86 236.14C1176.08 236.4 1175.43 236.81 1174.91 237.37C1174.41 237.91 1174.03 238.59 1173.77 239.41C1173.51 240.23 1173.38 241.18 1173.38 242.26V243.16C1173.38 244.66 1173.6 245.89 1174.04 246.85C1174.48 247.81 1175.14 248.53 1176.02 249.01C1176.9 249.47 1177.99 249.7 1179.29 249.7C1180.37 249.7 1181.32 249.54 1182.14 249.22C1182.98 248.88 1183.63 248.4 1184.09 247.78C1184.57 247.16 1184.81 246.4 1184.81 245.5V245.29H1178.66V241.87H1189.25V253H1186.31L1185.92 250.78C1185.32 251.36 1184.67 251.84 1183.97 252.22C1183.29 252.6 1182.53 252.88 1181.69 253.06C1180.85 253.26 1179.91 253.36 1178.87 253.36ZM1207.66 253L1215.58 232.42H1221.1L1229.02 253H1224.19L1222.72 248.95H1213.75L1212.28 253H1207.66ZM1215.04 245.35H1221.43L1219.6 240.28C1219.52 240.06 1219.42 239.8 1219.3 239.5C1219.2 239.18 1219.09 238.83 1218.97 238.45C1218.85 238.07 1218.73 237.7 1218.61 237.34C1218.51 236.96 1218.41 236.62 1218.31 236.32H1218.13C1218.03 236.7 1217.9 237.15 1217.74 237.67C1217.58 238.17 1217.42 238.66 1217.26 239.14C1217.1 239.6 1216.97 239.98 1216.87 240.28L1215.04 245.35ZM1247.67 253V232.42H1258.95C1260.47 232.42 1261.73 232.69 1262.73 233.23C1263.75 233.77 1264.51 234.53 1265.01 235.51C1265.51 236.47 1265.76 237.58 1265.76 238.84C1265.76 240.18 1265.46 241.37 1264.86 242.41C1264.26 243.43 1263.39 244.21 1262.25 244.75L1266.45 253H1261.5L1257.87 245.5H1252.14V253H1247.67ZM1252.14 241.96H1258.35C1259.25 241.96 1259.95 241.69 1260.45 241.15C1260.95 240.59 1261.2 239.84 1261.2 238.9C1261.2 238.3 1261.09 237.79 1260.87 237.37C1260.65 236.93 1260.33 236.6 1259.91 236.38C1259.49 236.16 1258.97 236.05 1258.35 236.05H1252.14V241.96Z" fill="#375B8C"/>
<rect x="147" y="285" width="32" height="32" fill="#375B8C"/>
<path d="M97.1688 103.045C102.208 108.725 102.208 117.275 97.1688 122.955L66.916 157.056C57.7578 167.379 40.6951 160.901 40.6951 147.101L40.6951 78.8987C40.6951 65.0988 57.7578 58.621 66.916 68.9442L97.1688 103.045Z" fill="#76AEEA"/>
<path d="M261.831 249.955C256.792 244.275 256.792 235.725 261.831 230.045L292.084 195.944C301.242 185.621 318.305 192.099 318.305 205.899L318.305 274.101C318.305 287.901 301.242 294.379 292.084 284.056L261.831 249.955Z" fill="#76AEEA"/>
<path d="M252.462 125.817C246.639 131.485 237.361 131.485 231.538 125.817L170.594 66.499C160.947 57.1098 167.595 40.75 181.056 40.75L302.944 40.75C316.405 40.75 323.053 57.1098 313.406 66.499L252.462 125.817Z" fill="#76AEEA"/>
<path fill-rule="evenodd" clip-rule="evenodd" d="M127.157 128.074L147.254 148.171C153.112 154.029 153.112 163.527 147.254 169.385L81.6372 235.001L81.6102 234.974L65.7375 250.183C56.1995 259.322 40.3597 252.562 40.3597 239.353L40.3598 193.736L40.3208 193.697L40.3598 193.658V193.657L40.3604 193.657L105.943 128.074C111.801 122.216 121.299 122.216 127.157 128.074Z" fill="#76AEEA"/>
<path fill-rule="evenodd" clip-rule="evenodd" d="M231.491 222.308L211.393 202.211C205.536 196.353 205.536 186.856 211.393 180.998L277.01 115.381L277.037 115.408L292.91 100.199C302.448 91.0601 318.288 97.8201 318.287 111.03L318.287 156.647L318.326 156.686L318.287 156.725V156.726L318.287 156.725L252.704 222.308C246.846 228.166 237.349 228.166 231.491 222.308Z" fill="#76AEEA"/>
<path fill-rule="evenodd" clip-rule="evenodd" d="M224.982 154.058L205.658 174.59C199.654 180.97 189.218 181.082 183.065 174.833L89.7444 80.0622L89.7709 80.0368L75.0593 65.7044C65.5442 56.4345 72.4235 40.8039 86.0184 40.8039L130.855 40.8039L130.894 40.767L130.931 40.8039H130.934L130.932 40.8054L224.645 134.131C230.203 139.666 230.35 148.355 224.982 154.058Z" fill="#76AEEA"/>
<path fill-rule="evenodd" clip-rule="evenodd" d="M30 0H0V30V300V350H30H65V349.992L162.255 252.736L224.323 314.803H309.283L204.736 210.256L204.83 210.161L162.35 167.681L30.0306 300H30V30L329 30V315H359V30V0H329H30Z" fill="#375B8C"/>
</svg>
